<svg xmlns="http://www.w3.org/2000/svg" viewBox="0 0 800 1050">
  <!-- Background -->
  <rect width="800" height="1050" fill="#000000"/>
  
  <!-- Title -->
  <text x="400" y="50" font-family="Arial" font-size="28" fill="#ffffff" text-anchor="middle" font-weight="bold">Linked List Cycle Detection</text>
  <text x="400" y="80" font-family="Arial" font-size="20" fill="#ffffff" text-anchor="middle">Step by Step Visualization</text>
  
  <!-- Initial State -->
  <text x="100" y="140" font-family="Arial" font-size="22" fill="#ffffff" text-anchor="start" font-weight="bold">Initial State:</text>
  
  <!-- Nodes - Initial -->
  <circle cx="100" cy="180" r="30" fill="#3498db" stroke="#ffffff" stroke-width="2"/>
  <text x="100" y="185" font-family="Arial" font-size="16" fill="white" text-anchor="middle">1</text>
  
  <circle cx="200" cy="180" r="30" fill="#3498db" stroke="#ffffff" stroke-width="2"/>
  <text x="200" y="185" font-family="Arial" font-size="16" fill="white" text-anchor="middle">2</text>
  
  <circle cx="300" cy="180" r="30" fill="#3498db" stroke="#ffffff" stroke-width="2"/>
  <text x="300" y="185" font-family="Arial" font-size="16" fill="white" text-anchor="middle">3</text>
  
  <circle cx="400" cy="180" r="30" fill="#3498db" stroke="#ffffff" stroke-width="2"/>
  <text x="400" y="185" font-family="Arial" font-size="16" fill="white" text-anchor="middle">4</text>
  
  <circle cx="500" cy="180" r="30" fill="#3498db" stroke="#ffffff" stroke-width="2"/>
  <text x="500" y="185" font-family="Arial" font-size="16" fill="white" text-anchor="middle">5</text>
  
  <circle cx="600" cy="180" r="30" fill="#3498db" stroke="#ffffff" stroke-width="2"/>
  <text x="600" y="185" font-family="Arial" font-size="16" fill="white" text-anchor="middle">6</text>
  
  <!-- Arrows -->
  <defs>
    <marker id="arrowhead" markerWidth="10" markerHeight="7" refX="10" refY="3.5" orient="auto">
      <polygon points="0 0, 10 3.5, 0 7" fill="#ffffff"/>
    </marker>
  </defs>
  
  <!-- Regular Links -->
  <line x1="130" y1="180" x2="170" y2="180" stroke="#ffffff" stroke-width="2" marker-end="url(#arrowhead)"/>
  <line x1="230" y1="180" x2="270" y2="180" stroke="#ffffff" stroke-width="2" marker-end="url(#arrowhead)"/>
  <line x1="330" y1="180" x2="370" y2="180" stroke="#ffffff" stroke-width="2" marker-end="url(#arrowhead)"/>
  <line x1="430" y1="180" x2="470" y2="180" stroke="#ffffff" stroke-width="2" marker-end="url(#arrowhead)"/>
  <line x1="530" y1="180" x2="570" y2="180" stroke="#ffffff" stroke-width="2" marker-end="url(#arrowhead)"/>
  
  <!-- Loop arrow -->
  <path d="M 630,180 C 700,180 700,230 550,230 C 400,230 350,180 300,180" fill="none" stroke="#ffffff" stroke-width="2" marker-end="url(#arrowhead)" stroke-dasharray="5,5"/>
  
  <!-- Slow pointer - Initial -->
  <circle cx="100" cy="180" r="15" fill="none" stroke="#e74c3c" stroke-width="3"/>
  <text x="100" y="225" font-family="Arial" font-size="16" fill="#e74c3c" text-anchor="middle">slow</text>
  
  <!-- Fast pointer - Initial -->
  <circle cx="100" cy="180" r="15" fill="none" stroke="#2ecc71" stroke-width="3"/>
  <text x="100" y="140" font-family="Arial" font-size="16" fill="#2ecc71" text-anchor="middle">fast</text>
  
  <!-- Iteration 1 -->
  <text x="100" y="320" font-family="Arial" font-size="22" fill="#ffffff" text-anchor="start" font-weight="bold">Iteration 1:</text>
  
  <!-- Nodes - Iteration 1 -->
  <circle cx="100" cy="360" r="30" fill="#3498db" stroke="#ffffff" stroke-width="2"/>
  <text x="100" y="365" font-family="Arial" font-size="16" fill="white" text-anchor="middle">1</text>
  
  <circle cx="200" cy="360" r="30" fill="#3498db" stroke="#ffffff" stroke-width="2"/>
  <text x="200" y="365" font-family="Arial" font-size="16" fill="white" text-anchor="middle">2</text>
  
  <circle cx="300" cy="360" r="30" fill="#3498db" stroke="#ffffff" stroke-width="2"/>
  <text x="300" y="365" font-family="Arial" font-size="16" fill="white" text-anchor="middle">3</text>
  
  <circle cx="400" cy="360" r="30" fill="#3498db" stroke="#ffffff" stroke-width="2"/>
  <text x="400" y="365" font-family="Arial" font-size="16" fill="white" text-anchor="middle">4</text>
  
  <circle cx="500" cy="360" r="30" fill="#3498db" stroke="#ffffff" stroke-width="2"/>
  <text x="500" y="365" font-family="Arial" font-size="16" fill="white" text-anchor="middle">5</text>
  
  <circle cx="600" cy="360" r="30" fill="#3498db" stroke="#ffffff" stroke-width="2"/>
  <text x="600" y="365" font-family="Arial" font-size="16" fill="white" text-anchor="middle">6</text>
  
  <!-- Regular Links - Iteration 1 -->
  <line x1="130" y1="360" x2="170" y2="360" stroke="#ffffff" stroke-width="2" marker-end="url(#arrowhead)"/>
  <line x1="230" y1="360" x2="270" y2="360" stroke="#ffffff" stroke-width="2" marker-end="url(#arrowhead)"/>
  <line x1="330" y1="360" x2="370" y2="360" stroke="#ffffff" stroke-width="2" marker-end="url(#arrowhead)"/>
  <line x1="430" y1="360" x2="470" y2="360" stroke="#ffffff" stroke-width="2" marker-end="url(#arrowhead)"/>
  <line x1="530" y1="360" x2="570" y2="360" stroke="#ffffff" stroke-width="2" marker-end="url(#arrowhead)"/>
  
  <!-- Loop arrow - Iteration 1 -->
  <path d="M 630,360 C 700,360 700,410 550,410 C 400,410 350,360 300,360" fill="none" stroke="#ffffff" stroke-width="2" marker-end="url(#arrowhead)" stroke-dasharray="5,5"/>
  
  <!-- Slow pointer - Iteration 1 -->
  <circle cx="200" cy="360" r="15" fill="none" stroke="#e74c3c" stroke-width="3"/>
  <text x="200" y="405" font-family="Arial" font-size="16" fill="#e74c3c" text-anchor="middle">slow</text>
  
  <!-- Fast pointer - Iteration 1 -->
  <circle cx="300" cy="360" r="15" fill="none" stroke="#2ecc71" stroke-width="3"/>
  <text x="300" y="320" font-family="Arial" font-size="16" fill="#2ecc71" text-anchor="middle">fast</text>
  
  <!-- Iteration 2 -->
  <text x="100" y="500" font-family="Arial" font-size="22" fill="#ffffff" text-anchor="start" font-weight="bold">Iteration 2:</text>
  
  <!-- Nodes - Iteration 2 -->
  <circle cx="100" cy="540" r="30" fill="#3498db" stroke="#ffffff" stroke-width="2"/>
  <text x="100" y="545" font-family="Arial" font-size="16" fill="white" text-anchor="middle">1</text>
  
  <circle cx="200" cy="540" r="30" fill="#3498db" stroke="#ffffff" stroke-width="2"/>
  <text x="200" y="545" font-family="Arial" font-size="16" fill="white" text-anchor="middle">2</text>
  
  <circle cx="300" cy="540" r="30" fill="#3498db" stroke="#ffffff" stroke-width="2"/>
  <text x="300" y="545" font-family="Arial" font-size="16" fill="white" text-anchor="middle">3</text>
  
  <circle cx="400" cy="540" r="30" fill="#3498db" stroke="#ffffff" stroke-width="2"/>
  <text x="400" y="545" font-family="Arial" font-size="16" fill="white" text-anchor="middle">4</text>
  
  <circle cx="500" cy="540" r="30" fill="#3498db" stroke="#ffffff" stroke-width="2"/>
  <text x="500" y="545" font-family="Arial" font-size="16" fill="white" text-anchor="middle">5</text>
  
  <circle cx="600" cy="540" r="30" fill="#3498db" stroke="#ffffff" stroke-width="2"/>
  <text x="600" y="545" font-family="Arial" font-size="16" fill="white" text-anchor="middle">6</text>
  
  <!-- Regular Links - Iteration 2 -->
  <line x1="130" y1="540" x2="170" y2="540" stroke="#ffffff" stroke-width="2" marker-end="url(#arrowhead)"/>
  <line x1="230" y1="540" x2="270" y2="540" stroke="#ffffff" stroke-width="2" marker-end="url(#arrowhead)"/>
  <line x1="330" y1="540" x2="370" y2="540" stroke="#ffffff" stroke-width="2" marker-end="url(#arrowhead)"/>
  <line x1="430" y1="540" x2="470" y2="540" stroke="#ffffff" stroke-width="2" marker-end="url(#arrowhead)"/>
  <line x1="530" y1="540" x2="570" y2="540" stroke="#ffffff" stroke-width="2" marker-end="url(#arrowhead)"/>
  
  <!-- Loop arrow - Iteration 2 -->
  <path d="M 630,540 C 700,540 700,590 550,590 C 400,590 350,540 300,540" fill="none" stroke="#ffffff" stroke-width="2" marker-end="url(#arrowhead)" stroke-dasharray="5,5"/>
  
  <!-- Slow pointer - Iteration 2 -->
  <circle cx="300" cy="540" r="15" fill="none" stroke="#e74c3c" stroke-width="3"/>
  <text x="300" y="585" font-family="Arial" font-size="16" fill="#e74c3c" text-anchor="middle">slow</text>
  
  <!-- Fast pointer - Iteration 2 -->
  <circle cx="500" cy="540" r="15" fill="none" stroke="#2ecc71" stroke-width="3"/>
  <text x="500" y="500" font-family="Arial" font-size="16" fill="#2ecc71" text-anchor="middle">fast</text>
  
  <!-- Iteration 3 -->
  <text x="100" y="680" font-family="Arial" font-size="22" fill="#ffffff" text-anchor="start" font-weight="bold">Iteration 3:</text>
  
  <!-- Nodes - Iteration 3 -->
  <circle cx="100" cy="720" r="30" fill="#3498db" stroke="#ffffff" stroke-width="2"/>
  <text x="100" y="725" font-family="Arial" font-size="16" fill="white" text-anchor="middle">1</text>
  
  <circle cx="200" cy="720" r="30" fill="#3498db" stroke="#ffffff" stroke-width="2"/>
  <text x="200" y="725" font-family="Arial" font-size="16" fill="white" text-anchor="middle">2</text>
  
  <circle cx="300" cy="720" r="30" fill="#3498db" stroke="#ffffff" stroke-width="2"/>
  <text x="300" y="725" font-family="Arial" font-size="16" fill="white" text-anchor="middle">3</text>
  
  <circle cx="400" cy="720" r="30" fill="#3498db" stroke="#ffffff" stroke-width="2"/>
  <text x="400" y="725" font-family="Arial" font-size="16" fill="white" text-anchor="middle">4</text>
  
  <circle cx="500" cy="720" r="30" fill="#3498db" stroke="#ffffff" stroke-width="2"/>
  <text x="500" y="725" font-family="Arial" font-size="16" fill="white" text-anchor="middle">5</text>
  
  <circle cx="600" cy="720" r="30" fill="#3498db" stroke="#ffffff" stroke-width="2"/>
  <text x="600" y="725" font-family="Arial" font-size="16" fill="white" text-anchor="middle">6</text>
  
  <!-- Regular Links - Iteration 3 -->
  <line x1="130" y1="720" x2="170" y2="720" stroke="#ffffff" stroke-width="2" marker-end="url(#arrowhead)"/>
  <line x1="230" y1="720" x2="270" y2="720" stroke="#ffffff" stroke-width="2" marker-end="url(#arrowhead)"/>
  <line x1="330" y1="720" x2="370" y2="720" stroke="#ffffff" stroke-width="2" marker-end="url(#arrowhead)"/>
  <line x1="430" y1="720" x2="470" y2="720" stroke="#ffffff" stroke-width="2" marker-end="url(#arrowhead)"/>
  <line x1="530" y1="720" x2="570" y2="720" stroke="#ffffff" stroke-width="2" marker-end="url(#arrowhead)"/>
  
  <!-- Loop arrow - Iteration 3 -->
  <path d="M 630,720 C 700,720 700,770 550,770 C 400,770 350,720 300,720" fill="none" stroke="#ffffff" stroke-width="2" marker-end="url(#arrowhead)" stroke-dasharray="5,5"/>
  
  <!-- Slow pointer - Iteration 3 -->
  <circle cx="400" cy="720" r="15" fill="none" stroke="#e74c3c" stroke-width="3"/>
  <text x="400" y="765" font-family="Arial" font-size="16" fill="#e74c3c" text-anchor="middle">slow</text>
  
  <!-- Fast pointer - Iteration 3 -->
  <circle cx="300" cy="720" r="15" fill="none" stroke="#2ecc71" stroke-width="3"/>
  <text x="300" y="680" font-family="Arial" font-size="16" fill="#2ecc71" text-anchor="middle">fast</text>
  
  <!-- Iteration 4 -->
  <text x="100" y="860" font-family="Arial" font-size="22" fill="#ffffff" text-anchor="start" font-weight="bold">Iteration 4:</text>
  
  <!-- Nodes - Iteration 4 with glow effect -->
  <circle cx="100" cy="900" r="30" fill="#3498db" stroke="#ffffff" stroke-width="2"/>
  <text x="100" y="905" font-family="Arial" font-size="16" fill="white" text-anchor="middle">1</text>
  
  <circle cx="200" cy="900" r="30" fill="#3498db" stroke="#ffffff" stroke-width="2"/>
  <text x="200" y="905" font-family="Arial" font-size="16" fill="white" text-anchor="middle">2</text>
  
  <circle cx="300" cy="900" r="30" fill="#3498db" stroke="#ffffff" stroke-width="2"/>
  <text x="300" y="905" font-family="Arial" font-size="16" fill="white" text-anchor="middle">3</text>
  
  <circle cx="400" cy="900" r="30" fill="#3498db" stroke="#ffffff" stroke-width="2"/>
  <text x="400" y="905" font-family="Arial" font-size="16" fill="white" text-anchor="middle">4</text>
  
  <!-- Node 5 with special highlight since pointers meet here -->
  <circle cx="500" cy="900" r="30" fill="#3498db" stroke="#ffffff" stroke-width="2"/>
  <circle cx="500" cy="900" r="36" fill="none" stroke="#ffd700" stroke-width="3" opacity="0.6">
    <animate attributeName="r" values="36;42;36" dur="2s" repeatCount="indefinite"/>
    <animate attributeName="opacity" values="0.6;0.9;0.6" dur="2s" repeatCount="indefinite"/>
  </circle>
  <text x="500" y="905" font-family="Arial" font-size="16" fill="white" text-anchor="middle">5</text>
  
  <circle cx="600" cy="900" r="30" fill="#3498db" stroke="#ffffff" stroke-width="2"/>
  <text x="600" y="905" font-family="Arial" font-size="16" fill="white" text-anchor="middle">6</text>
  
  <!-- Regular Links - Iteration 4 -->
  <line x1="130" y1="900" x2="170" y2="900" stroke="#ffffff" stroke-width="2" marker-end="url(#arrowhead)"/>
  <line x1="230" y1="900" x2="270" y2="900" stroke="#ffffff" stroke-width="2" marker-end="url(#arrowhead)"/>
  <line x1="330" y1="900" x2="370" y2="900" stroke="#ffffff" stroke-width="2" marker-end="url(#arrowhead)"/>
  <line x1="430" y1="900" x2="470" y2="900" stroke="#ffffff" stroke-width="2" marker-end="url(#arrowhead)"/>
  <line x1="530" y1="900" x2="570" y2="900" stroke="#ffffff" stroke-width="2" marker-end="url(#arrowhead)"/>
  
  <!-- Loop arrow - Iteration 4 -->
  <path d="M 630,900 C 700,900 700,950 550,950 C 400,950 350,900 300,900" fill="none" stroke="#ffffff" stroke-width="2" marker-end="url(#arrowhead)" stroke-dasharray="5,5"/>
  
  <!-- Both pointers at node 5 with distinctive markers -->
  <circle cx="500" cy="900" r="15" fill="none" stroke="#e74c3c" stroke-width="3"/>
  <circle cx="500" cy="900" r="22" fill="none" stroke="#2ecc71" stroke-width="3"/>
  
  <text x="500" y="945" font-family="Arial" font-size="16" fill="#e74c3c" text-anchor="middle">slow</text>
  <text x="500" y="860" font-family="Arial" font-size="16" fill="#2ecc71" text-anchor="middle">fast</text>
  
  <!-- Final Result - More prominent and below everything -->
  <rect x="175" y="980" width="450" height="60" fill="#222222" stroke="#ffd700" stroke-width="3" rx="15"/>
  <text x="400" y="1020" font-family="Arial" font-size="28" fill="#ffffff" text-anchor="middle" font-weight="bold">Result: <tspan fill="#2ecc71">true</tspan> (Cycle Detected!)</text>
</svg>
